<?xml version="1.0" standalone="no"?>
<!DOCTYPE svg PUBLIC "-//W3C//DTD SVG 20010904//EN"
 "http://www.w3.org/TR/2001/REC-SVG-20010904/DTD/svg10.dtd">
<svg version="1.0" xmlns="http://www.w3.org/2000/svg"
 width="790.000000pt" height="790.000000pt" viewBox="0 0 790.000000 790.000000"
 preserveAspectRatio="xMidYMid meet">
<metadata>
Created by potrace 1.11, written by Peter Selinger 2001-2013
</metadata>
<g transform="translate(0.000000,790.000000) scale(0.100000,-0.100000)"
fill="#000000" stroke="none">
<path d="M3665 7890 c-962 -75 -1830 -474 -2506 -1149 -619 -619 -1009 -1408
-1124 -2271 -222 -1674 643 -3299 2157 -4055 420 -209 829 -330 1328 -392 191
-23 650 -23 855 1 1112 129 2083 685 2743 1571 420 565 675 1213 758 1930 13
108 18 228 18 425 0 297 -14 460 -60 710 -159 868 -608 1664 -1264 2243 -615
543 -1358 874 -2180 972 -159 19 -568 27 -725 15z m870 -571 c48 -21 128 -87
146 -121 14 -27 59 -236 59 -277 0 -52 -23 -141 -36 -141 -7 0 -17 -28 -23
-63 -15 -84 -14 -87 9 -87 11 0 20 -4 20 -8 0 -16 71 -30 127 -25 32 3 125 -2
208 -12 158 -18 207 -34 274 -91 51 -43 150 -179 183 -252 29 -62 31 -75 32
-188 l1 -121 36 -54 c47 -71 74 -123 102 -202 34 -94 65 -140 164 -249 55 -59
102 -123 123 -165 89 -175 163 -290 234 -363 71 -73 142 -168 195 -260 23 -41
26 -57 29 -177 3 -106 0 -144 -14 -189 -19 -62 -94 -154 -125 -154 -24 0 -43
44 -34 80 5 20 4 23 -6 13 -16 -16 -51 -17 -67 -1 -7 7 -12 32 -12 55 0 33 6
50 23 66 21 19 22 27 15 65 -11 50 -20 53 -35 11 -10 -25 -16 -30 -40 -27 -23
2 -29 9 -35 38 -41 203 -70 253 -193 328 -287 173 -353 242 -464 482 -12 25
-29 59 -39 75 -9 17 -34 62 -56 100 -89 161 -85 156 -107 144 -40 -21 -62 -74
-114 -269 -9 -36 -21 -76 -26 -90 -5 -14 -14 -50 -19 -80 -6 -30 -24 -96 -40
-147 l-30 -91 16 -94 c9 -51 20 -101 25 -110 5 -9 14 -85 20 -170 6 -84 18
-171 25 -193 8 -22 17 -51 20 -64 3 -14 8 -29 11 -35 4 -6 6 -91 5 -191 -1
-100 2 -196 8 -215 16 -56 24 -291 12 -356 -6 -33 -14 -90 -17 -128 -4 -39
-13 -86 -21 -105 -9 -20 -19 -56 -24 -81 -22 -119 -51 -260 -64 -310 -48 -187
-61 -230 -81 -270 -12 -25 -25 -76 -29 -114 -7 -67 -8 -70 -58 -115 -57 -51
-150 -98 -212 -107 -23 -3 -66 -14 -96 -24 -63 -21 -397 -126 -451 -142 -33
-9 -38 -15 -57 -77 -11 -36 -23 -106 -26 -156 -3 -49 -10 -115 -16 -145 -5
-30 -14 -113 -19 -185 -7 -108 -6 -136 7 -165 10 -24 16 -85 20 -202 6 -201
-10 -292 -61 -346 -31 -32 -32 -32 -125 -32 -140 0 -161 9 -248 107 -41 46
-74 89 -75 96 0 6 -2 28 -5 47 -12 95 -15 227 -5 267 6 24 26 67 43 95 31 51
32 56 40 208 4 85 15 187 23 227 14 64 14 75 1 107 -31 75 -103 68 -219 -23
-36 -28 -72 -51 -80 -51 -8 0 -39 -19 -69 -43 -29 -24 -69 -49 -88 -56 -19 -7
-44 -17 -55 -21 -21 -9 -127 -42 -180 -57 -17 -5 -39 -23 -52 -43 -12 -19 -29
-42 -37 -51 -9 -8 -23 -33 -32 -55 -37 -91 -90 -192 -120 -230 -28 -35 -42
-43 -92 -54 -53 -11 -62 -10 -86 5 -15 10 -40 37 -57 61 -28 42 -29 45 -28
166 0 89 5 142 19 193 11 39 27 99 36 135 9 36 22 79 30 97 8 17 14 38 14 47
0 8 6 35 13 58 8 24 24 77 37 118 12 41 28 80 35 85 7 6 15 21 19 35 8 24 89
219 105 250 13 24 51 23 105 -3 82 -39 188 -84 231 -98 22 -6 56 -22 76 -35
43 -27 63 -30 109 -20 42 10 237 102 265 126 11 9 54 29 95 44 131 47 170 73
206 141 63 119 72 141 88 215 8 42 22 92 29 110 18 45 32 276 18 285 -6 3 -11
18 -11 33 0 20 -14 42 -51 77 -28 28 -86 100 -128 161 -64 91 -79 119 -83 159
-6 52 5 95 34 135 14 20 16 31 8 55 -5 17 -12 42 -15 57 -3 15 -17 34 -33 43
-15 10 -35 27 -42 40 -8 13 -31 45 -50 72 -29 40 -36 63 -47 138 -28 198 -43
339 -45 442 -2 100 0 113 25 168 16 33 37 69 48 81 21 22 119 211 119 229 0 6
9 29 19 51 50 103 64 165 63 283 0 62 -3 115 -6 118 -2 3 -11 0 -18 -6 -31
-26 -221 -115 -313 -147 -149 -52 -311 -134 -387 -195 -86 -69 -392 -229 -439
-229 -19 -1 -72 -16 -119 -34 -47 -19 -101 -39 -120 -46 -19 -7 -57 -22 -83
-34 -78 -33 -204 -28 -340 12 -120 36 -237 90 -280 131 -16 14 -37 42 -47 62
-10 19 -26 41 -34 48 -14 12 -16 46 -16 235 0 212 1 223 24 272 22 48 109 134
164 163 39 20 183 50 219 45 178 -25 322 -134 384 -289 29 -73 31 -85 25 -160
-3 -44 -8 -94 -12 -111 -6 -30 -5 -30 33 -26 40 5 96 36 127 71 11 12 61 45
110 73 50 28 123 75 162 105 67 50 189 169 210 203 11 18 35 34 89 59 22 10
87 49 145 86 58 37 129 83 158 102 35 22 65 53 89 91 57 89 140 198 166 219
25 19 115 65 202 103 48 20 194 90 282 133 23 11 46 31 52 44 15 33 13 120 -4
168 -8 22 -15 48 -15 58 0 10 -8 17 -20 17 -33 0 -53 44 -53 118 1 60 3 68 31
91 23 20 31 37 36 73 11 91 96 214 171 249 57 27 168 26 230 -2z m-1809 -289
l38 -5 -28 -18 c-24 -16 -27 -23 -21 -53 7 -38 0 -41 -33 -18 -20 14 -24 14
-52 -6 -32 -23 -36 -17 -20 25 9 22 6 29 -18 50 l-27 24 32 1 c28 0 35 5 49
38 l16 37 12 -35 c11 -30 18 -36 52 -40z m-358 -202 l37 -15 -37 -8 c-37 -7
-38 -9 -38 -49 l-1 -41 -27 33 c-25 30 -30 32 -56 22 -38 -14 -44 -5 -16 25
22 23 22 25 6 50 -22 33 -14 42 21 26 25 -11 29 -10 48 16 l20 28 3 -36 c3
-32 8 -39 40 -51z m709 49 l35 14 -22 -36 -22 -36 21 -23 c29 -31 26 -36 -11
-25 -29 8 -35 6 -54 -17 l-21 -26 -7 36 c-5 25 -12 36 -24 36 -9 0 -24 5 -32
10 -12 7 -8 12 18 21 28 10 32 15 32 47 l0 37 26 -27 c25 -25 28 -25 61 -11z
m-405 -32 c11 -43 3 -55 -37 -55 -35 0 -35 0 -35 46 0 45 0 45 32 42 26 -2 33
-9 40 -33z m48 -19 c0 -41 -4 -55 -16 -60 -9 -4 -18 -5 -19 -4 -1 2 0 29 2 61
4 39 10 57 19 57 10 0 14 -15 14 -54z m-479 -342 c33 19 33 20 18 -22 -10 -29
-8 -34 18 -57 l28 -26 -39 4 c-36 3 -40 1 -54 -32 l-15 -36 -10 38 c-9 36 -26
45 -69 38 -18 -3 -6 16 21 32 27 16 29 20 20 50 -5 17 -9 33 -9 35 0 2 14 -7
31 -19 30 -21 32 -21 60 -5z m923 -12 c-5 -34 -3 -39 20 -50 37 -16 32 -32 -9
-32 -28 0 -35 -4 -35 -19 0 -11 -3 -27 -7 -37 -5 -13 -9 -10 -22 17 -14 30
-20 34 -49 31 -37 -4 -42 7 -11 26 21 13 22 32 4 75 -7 17 -6 17 29 0 36 -17
37 -16 58 5 13 12 24 22 25 22 2 0 1 -17 -3 -38z m-703 -301 c14 -23 21 -27
48 -23 36 5 40 -7 11 -33 -18 -16 -18 -20 -5 -46 21 -39 19 -42 -16 -23 -30
15 -32 15 -61 -13 l-29 -28 7 41 c6 39 4 41 -26 54 -34 14 -25 30 18 30 19 0
22 5 22 35 0 42 10 44 31 6z m429 -1 c0 -20 6 -32 18 -36 57 -18 58 -20 27
-35 -27 -13 -30 -19 -27 -54 l4 -40 -30 28 c-29 28 -31 28 -61 13 -36 -19 -38
-15 -14 25 17 28 16 29 -8 55 l-24 27 37 -6 c33 -5 37 -3 48 24 16 38 30 37
30 -1z m3103 -2332 c43 -200 77 -366 77 -370 0 -5 -47 -8 -104 -8 l-103 0 -13
75 -13 75 -128 0 -128 0 -35 -75 -35 -75 -111 0 c-61 0 -110 3 -108 8 2 4 85
170 186 370 l183 362 127 0 128 0 77 -362z m-319 -616 c32 -75 74 -173 92
-217 19 -44 34 -75 34 -70 0 6 14 103 32 218 l32 207 98 0 99 0 -6 -32 c-13
-77 -105 -662 -105 -670 0 -4 -49 -8 -109 -8 l-109 0 -91 205 c-50 113 -91
210 -91 215 0 6 -4 10 -10 10 -5 0 -10 -17 -11 -37 0 -21 -13 -117 -28 -213
l-27 -175 -97 -3 c-53 -1 -97 1 -97 6 0 11 98 637 106 675 l6 27 111 0 112 0
59 -138z m190 -677 c22 -11 53 -37 70 -58 26 -32 31 -49 34 -106 3 -54 0 -76
-17 -108 -23 -46 -71 -90 -108 -99 -24 -6 -23 -8 23 -33 69 -37 97 -93 91
-178 -8 -110 -74 -189 -177 -212 -42 -10 -480 -16 -480 -7 0 2 29 187 65 410
36 223 65 408 65 412 0 3 89 4 198 2 173 -3 202 -5 236 -23z m9 -1247 c43
-200 77 -366 77 -370 0 -5 -47 -8 -104 -8 l-103 0 -13 75 -13 75 -128 0 -128
0 -35 -75 -35 -75 -111 0 c-61 0 -110 3 -108 8 2 4 85 170 186 370 l183 362
127 0 128 0 77 -362z"/>
<path d="M2630 6849 c0 -5 5 -7 10 -4 6 3 10 8 10 11 0 2 -4 4 -10 4 -5 0 -10
-5 -10 -11z"/>
<path d="M2630 6820 c0 -5 5 -10 11 -10 5 0 7 5 4 10 -3 6 -8 10 -11 10 -2 0
-4 -4 -4 -10z"/>
<path d="M5712 3892 c-24 -53 -46 -103 -49 -109 -4 -10 13 -13 69 -13 l74 0
-20 110 c-12 60 -23 110 -26 110 -3 -1 -24 -44 -48 -98z"/>
<path d="M5627 2393 c-3 -10 -8 -40 -12 -68 -3 -27 -9 -59 -12 -69 -5 -17 -1
-18 48 -12 30 4 64 13 75 21 25 16 37 65 24 99 -15 40 -114 63 -123 29z"/>
<path d="M5576 2069 c-12 -52 -27 -162 -22 -166 3 -3 32 -2 66 2 73 8 106 33
115 86 10 55 -23 87 -97 95 -54 6 -57 5 -62 -17z"/>
<path d="M5592 1352 c-24 -53 -46 -103 -49 -109 -4 -10 13 -13 69 -13 l74 0
-20 110 c-12 60 -23 110 -26 110 -3 -1 -24 -44 -48 -98z"/>
</g>
</svg>
