<?xml version="1.0" encoding="iso-8859-1"?>
<!-- Generator: Adobe Illustrator 19.0.0, SVG Export Plug-In . SVG Version: 6.00 Build 0)  -->
<svg version="1.1" id="Capa_1" xmlns="http://www.w3.org/2000/svg" xmlns:xlink="http://www.w3.org/1999/xlink" x="0px" y="0px"
	 viewBox="0 0 512 512" style="enable-background:new 0 0 512 512;" xml:space="preserve">
<path style="fill:#00607F;" d="M361,240v45c0,57.9-47.1,105-105,105s-105-47.1-105-105v-45l30-30h150L361,240z"/>
<path style="fill:#00465F;" d="M361,240v45c0,57.9-47.1,105-105,105V210h75L361,240z"/>
<path style="fill:#C6E2E7;" d="M361,120l-30,15l30,15v30l-30,15l30,15v30H151v-30l30-15l-30-15v-30l30-15l-30-15v-15
	c0-52.8,39.3-96,90-103.5L256,30l15-28.5C321.7,9,361,52.2,361,105V120z"/>
<path style="fill:#8EBAC5;" d="M361,240H256V30l15-28.5C321.7,9,361,52.2,361,105v15l-30,15l30,15v30l-30,15l30,15V240z"/>
<rect x="241" y="432.6" style="fill:#00465F;" width="30" height="64.4"/>
<rect x="256" y="432.6" style="fill:#002C3C;" width="15" height="64.4"/>
<g>
	<rect x="181" y="482" style="fill:#00607F;" width="150" height="30"/>
	<path style="fill:#00607F;" d="M421,225v60c0,90.899-74.099,165-165,165S91,375.899,91,285v-60h30v60c0,74.399,60.601,135,135,135
		s135-60.601,135-135v-60H421z"/>
	<rect x="151" y="120" style="fill:#00607F;" width="60" height="30"/>
	<rect x="151" y="180" style="fill:#00607F;" width="60" height="30"/>
</g>
<g>
	<rect x="301" y="120" style="fill:#00465F;" width="60" height="30"/>
	<rect x="301" y="180" style="fill:#00465F;" width="60" height="30"/>
</g>
<path style="fill:#00607F;" d="M271,1.5V60h-30V1.5c4.799-0.601,9.901-1.5,15-1.5S266.201,0.899,271,1.5z"/>
<g>
	<path style="fill:#00465F;" d="M271,60h-15V0c5.099,0,10.201,0.899,15,1.5V60z"/>
	<rect x="256" y="482" style="fill:#00465F;" width="75" height="30"/>
	<path style="fill:#00465F;" d="M421,225v60c0,90.899-74.099,165-165,165v-30c74.399,0,135-60.601,135-135v-60H421z"/>
</g>
<g>
</g>
<g>
</g>
<g>
</g>
<g>
</g>
<g>
</g>
<g>
</g>
<g>
</g>
<g>
</g>
<g>
</g>
<g>
</g>
<g>
</g>
<g>
</g>
<g>
</g>
<g>
</g>
<g>
</g>
</svg>
